0
SECTION
2
HEADER
9
$INSUNITS
70
4
9
$ACADVER
1
AC1014
9
$HANDSEED
5
FFFF
0
ENDSEC
0
SECTION
2
TABLES
0
TABLE
2
VPORT
5
8
100
AcDbSymbolTable
0
ENDTAB
0
TABLE
2
LTYPE
5
5
100
AcDbSymbolTable
0
LTYPE
5
14
100
AcDbSymbolTableRecord
100
AcDbLinetypeTableRecord
2
BYBLOCK
70
0
0
LTYPE
5
15
100
AcDbSymbolTableRecord
100
AcDbLinetypeTableRecord
2
BYLAYER
70
0
0
ENDTAB
0
TABLE
2
LAYER
5
2
100
AcDbSymbolTable
70
2
0
LAYER
5
50
100
AcDbSymbolTableRecord
100
AcDbLayerTableRecord
2
0
70
0
6
CONTINUOUS
0
ENDTAB
0
TABLE
2
STYLE
5
3
100
AcDbSymbolTable
70
1
0
STYLE
5
11
100
AcDbSymbolTableRecord
100
AcDbTextStyleTableRecord
2
STANDARD
70
0
0
ENDTAB
0
TABLE
2
VIEW
5
6
100
AcDbSymbolTable
70
0
0
ENDTAB
0
TABLE
2
UCS
5
7
100
AcDbSymbolTable
70
0
0
ENDTAB
0
TABLE
2
APPID
5
9
100
AcDbSymbolTable
70
2
0
APPID
5
12
100
AcDbSymbolTableRecord
100
AcDbRegAppTableRecord
2
ACAD
70
0
0
ENDTAB
0
TABLE
2
DIMSTYLE
5
A
100
AcDbSymbolTable
70
1
0
ENDTAB
0
TABLE
2
BLOCK_RECORD
5
1
100
AcDbSymbolTable
70
1
0
BLOCK_RECORD
5
1F
100
AcDbSymbolTableRecord
100
AcDbBlockTableRecord
2
*MODEL_SPACE
0
BLOCK_RECORD
5
1B
100
AcDbSymbolTableRecord
100
AcDbBlockTableRecord
2
*PAPER_SPACE
0
ENDTAB
0
ENDSEC
0
SECTION
2
BLOCKS
0
BLOCK
5
20
100
AcDbEntity
100
AcDbBlockBegin
2
*MODEL_SPACE
0
ENDBLK
5
21
100
AcDbEntity
100
AcDbBlockEnd
0
BLOCK
5
1C
100
AcDbEntity
100
AcDbBlockBegin
2
*PAPER_SPACE
0
ENDBLK
5
1D
100
AcDbEntity
100
AcDbBlockEnd
0
ENDSEC
0
SECTION
2
ENTITIES
0
LWPOLYLINE
5
100
100
AcDbEntity
8
0
100
AcDbPolyline
90
102
70
1
43
0.0
10
33.230087818595734
20
-31.989954067552233
10
33.230087818595734
20
-38.847589032554986
10
20.579598800415695
20
-56.365213143174032
10
23.902751678941616
20
-58.765053939509059
10
33.230087818595734
20
-46.584262809303908
10
33.230087818595734
20
-57.502028869267861
10
28.273140761565969
20
-66.832570199276446
10
36.2258447200945
20
-82.036521795860438
10
44.386983385182603
20
-66.674678964284169
10
38.897169727412091
20
-56.365213143174032
10
38.897169727412091
20
-46.401811254254142
10
48.081802291874347
20
-58.620649607349449
10
51.082337520476585
20
-56.365213143174032
10
38.897169727412091
20
-39.057154320699581
10
38.897169727412091
20
-31.989954067552233
10
46.173979889468399
20
-41.670707921588757
10
50.169916752113082
20
-38.667049899966415
10
45.170901828032768
20
-28.285226700314283
10
51.046627374876422
20
-31.556937516170393
10
59.726676478168187
20
-51.454280845254566
10
63.616749642239796
20
-49.757269062270296
10
57.688024598661244
20
-35.254988243050569
10
67.337962141915128
20
-41.439422129685894
10
73.126271653482604
20
-51.327784211947233
10
91.173922843740314
20
-51.04578966209953
10
82.263020538873022
20
-35.822998224618026
10
69.725466739802968
20
-35.254988243050569
10
60.652387120450499
20
-30.607826605545696
10
76.013428123741221
20
-28.755198329289691
10
75.480880035255126
20
-24.339583427852638
10
54.275772422839239
20
-26.897039133842668
10
48.083589611007071
20
-23.022582309969543
10
61.642674605661973
20
-22.429592032761878
10
61.390895557045937
20
-16.672510253724617
10
48.083589611007071
20
-15.965705957695073
10
53.864421418273558
20
-12.318048872841985
10
75.449719667186045
20
-14.656377424309737
10
75.263239628073592
20
-10.392397394082735
10
60.226109109202035
20
-8.7634297875686116
10
70.791303372401757
20
-3.2253967683677232
10
81.910815578987481
20
-3.2253967683677098
10
90.569155889227943
20
12.075715629095418
10
72.254635365675341
20
12.075715629095418
10
67.349868691690929
20
2.5989819865509101
10
57.525610168053731
20
-3.8166301825825188
10
63.559307593133227
20
10.625730675320511
10
59.973795560298854
20
12.123677924593533
10
50.785841767699026
20
-7.6679264113566514
10
45.073085695017369
20
-10.877339935335101
10
50.002267727861494
20
-0.25947847280797909
10
44.644303173032142
20
2.2278757566184404
10
38.204940753703468
20
-7.6679264113566514
10
38.204940753703468
20
-0.25947847280797909
10
51.28425385574058
20
16.968134206719625
10
48.241143808667026
20
19.278482706539815
10
38.204940753703468
20
6.948068103985654
10
38.992518600039247
20
18.123308456629722
10
44.962412852472447
20
25.714485170134228
10
35.861821047912102
20
42.823597762707699
10
26.397205571169337
20
25.896497006225431
10
32.585517630249825
20
17.730530469402368
10
32.585517630249825
20
7.254444291186144
10
23.187852088026446
20
19.271131377963574
10
20.021599044814895
20
16.79495912622119
10
32.585517630249825
20
-0.52559029704796423
10
32.585517630249825
20
-7.3963487133214434
10
25.553540399119036
20
2.297896624777267
10
21.066626120488749
20
-0.95680530868463176
10
26.482615636485008
20
-11.319742633606648
10
20.541169717886625
20
-8.2127479789267621
10
11.710763857217463
20
12.009971615568652
10
7.4802624777277016
20
10.162690689753713
10
13.646540520872836
20
-3.9588472979428468
10
5.1857344315365195
20
1.336392120970995
10
-0.88757194090557423
20
12.075715629095418
10
-18.518088378766819
20
12.075715629095418
10
-8.8275971366860695
20
-4.2596838932692815
10
2.1393933196414028
20
-4.2596838932692815
10
10.867732121500548
20
-8.9749933609403634
10
-4.2292091914977181
20
-10.827011496218946
10
-3.6945944635205841
20
-15.184985654026587
10
17.549107248808689
20
-13.005998575122764
10
23.677403406129251
20
-16.29297554568339
10
11.882080694727328
20
-17.083723436950557
10
11.882080694727328
20
-22.779081076969881
10
23.677403406129251
20
-23.737265618003363
10
17.779742050428293
20
-27.282548419827243
10
-4.041604965665182
20
-25.509907018915293
10
-4.3602219548096377
20
-29.432105768062932
10
11.641729545259061
20
-30.732012767547737
10
1.8682472267175942
20
-35.906209289128519
10
-10.656167071128984
20
-35.906209289128519
10
-19.902444270492641
20
-50.49717067691175
10
-0.47564224614834671
20
-50.49717067691175
10
5.0780449178949549
20
-41.733250536602739
10
14.253858155852628
20
-35.663365935925349
10
8.1227989444912208
20
-50.541016176362845
10
11.822134018421977
20
-52.065507074750059
10
20.808118040548933
20
-32.301178659546139
10
26.662880700267895
20
-28.698247792026777
10
21.73405459553053
20
-39.539012431223391
10
26.662880700267895
20
-41.779936164859649
0
LWPOLYLINE
5
101
100
AcDbEntity
8
0
100
AcDbPolyline
90
4
70
1
43
0.0
10
32.25753415393104
20
-21.212649310362323
10
39.50848373358442
20
-21.212649310362323
10
39.50848373358442
20
-18.763296428781398
10
32.257534153931033
20
-18.763296428781398
0
ENDSEC
0
SECTION
2
OBJECTS
0
DICTIONARY
5
C
100
AcDbDictionary
3
ACAD_GROUP
350
D
3
ACAD_MLINESTYLE
350
17
0
DICTIONARY
5
D
100
AcDbDictionary
0
DICTIONARY
5
1A
330
C
100
AcDbDictionary
0
DICTIONARY
5
17
100
AcDbDictionary
0
ENDSEC
0
EOF
